<svg width="366" height="87" viewBox="0 0 366 87" fill="none" xmlns="http://www.w3.org/2000/svg">
<g clip-path="url(#clip0_277_42)">
<path d="M365.854 8.58824C365.854 6.31049 364.913 4.12604 363.238 2.51544C361.563 0.904829 359.29 0 356.921 0H345.756C344.571 0 343.435 0.452415 342.598 1.25772C341.76 2.06302 341.289 3.15525 341.289 4.29412C341.289 6.00242 340.584 7.64076 339.327 8.84872C338.071 10.0567 336.367 10.7353 334.59 10.7353C332.813 10.7353 331.109 10.0567 329.853 8.84872C328.596 7.64076 327.891 6.00242 327.891 4.29412C327.891 3.15525 327.42 2.06302 326.582 1.25772C325.745 0.452415 324.609 0 323.424 0H312.259C309.889 0 307.617 0.904829 305.942 2.51544C304.267 4.12604 303.326 6.31049 303.326 8.58824V77.2941C303.326 79.5719 304.267 81.7563 305.942 83.3669C307.617 84.9775 309.889 85.8824 312.259 85.8824H323.424C324.609 85.8824 325.745 85.4299 326.582 84.6246C327.42 83.8193 327.891 82.7271 327.891 81.5882C327.891 79.8799 328.596 78.2416 329.853 77.0336C331.109 75.8257 332.813 75.1471 334.59 75.1471C336.367 75.1471 338.071 75.8257 339.327 77.0336C340.584 78.2416 341.289 79.8799 341.289 81.5882C341.289 82.7271 341.76 83.8193 342.598 84.6246C343.435 85.4299 344.571 85.8824 345.756 85.8824H356.921C359.29 85.8824 361.563 84.9775 363.238 83.3669C364.913 81.7563 365.854 79.5719 365.854 77.2941V8.58824Z" fill="#FCD535"/>
<path d="M25.76 72.72C23.4133 72.72 21.6 72.08 20.32 70.8C19.04 69.4667 18.4 67.6267 18.4 65.28V27.6H5.84C3.86667 27.6 2.34667 27.0933 1.28 26.08C0.266667 25.0133 -0.24 23.52 -0.24 21.6C-0.24 19.6267 0.266667 18.1333 1.28 17.12C2.34667 16.1067 3.86667 15.6 5.84 15.6H45.68C47.6533 15.6 49.1467 16.1067 50.16 17.12C51.2267 18.1333 51.76 19.6267 51.76 21.6C51.76 23.52 51.2267 25.0133 50.16 26.08C49.1467 27.0933 47.6533 27.6 45.68 27.6H33.12V65.28C33.12 67.6267 32.5067 69.4667 31.28 70.8C30.0533 72.08 28.2133 72.72 25.76 72.72ZM86.6506 72.72C84.304 72.72 82.4906 72.08 81.2106 70.8C79.9306 69.4667 79.2906 67.5733 79.2906 65.12V43.2L82.3306 51.28L63.9306 24.8C63.024 23.52 62.624 22.1067 62.7306 20.56C62.8906 18.96 63.5306 17.6267 64.6506 16.56C65.824 15.44 67.4773 14.88 69.6106 14.88C71.104 14.88 72.464 15.2533 73.6906 16C74.9173 16.6933 76.064 17.8933 77.1306 19.6L88.3306 36.08H85.4506L96.6506 19.52C97.7706 17.8133 98.9173 16.6133 100.091 15.92C101.264 15.2267 102.651 14.88 104.251 14.88C106.277 14.88 107.851 15.3867 108.971 16.4C110.091 17.4133 110.677 18.6933 110.731 20.24C110.837 21.7867 110.357 23.36 109.291 24.96L91.0506 51.28L94.0106 43.2V65.12C94.0106 70.1867 91.5573 72.72 86.6506 72.72ZM150.772 72.88C144.532 72.88 139.172 71.68 134.692 69.28C130.212 66.88 126.772 63.4933 124.372 59.12C122.025 54.7467 120.852 49.6267 120.852 43.76C120.852 39.3867 121.519 35.4133 122.852 31.84C124.239 28.2667 126.212 25.2 128.772 22.64C131.385 20.08 134.532 18.1333 138.212 16.8C141.945 15.4133 146.132 14.72 150.772 14.72C153.225 14.72 155.759 15.0133 158.372 15.6C161.039 16.1333 163.385 16.96 165.412 18.08C166.905 18.88 167.945 19.8933 168.532 21.12C169.119 22.3467 169.305 23.6 169.092 24.88C168.932 26.16 168.479 27.3067 167.732 28.32C166.985 29.3333 166.025 30.0267 164.852 30.4C163.679 30.72 162.399 30.5333 161.012 29.84C159.412 29.0933 157.812 28.5333 156.212 28.16C154.665 27.7333 153.039 27.52 151.332 27.52C148.025 27.52 145.252 28.16 143.012 29.44C140.825 30.6667 139.172 32.48 138.052 34.88C136.932 37.28 136.372 40.24 136.372 43.76C136.372 47.28 136.932 50.2667 138.052 52.72C139.172 55.12 140.825 56.96 143.012 58.24C145.252 59.4667 148.025 60.08 151.332 60.08C152.719 60.08 154.212 59.92 155.812 59.6C157.412 59.2267 158.985 58.6667 160.532 57.92C162.132 57.2267 163.545 57.04 164.772 57.36C166.052 57.68 167.065 58.32 167.812 59.28C168.612 60.24 169.119 61.36 169.332 62.64C169.545 63.8667 169.359 65.0933 168.772 66.32C168.239 67.5467 167.279 68.5333 165.892 69.28C164.025 70.4 161.705 71.28 158.932 71.92C156.212 72.56 153.492 72.88 150.772 72.88ZM192.73 72.72C190.383 72.72 188.57 72.08 187.29 70.8C186.01 69.4667 185.37 67.6 185.37 65.2V22.4C185.37 19.9467 186.01 18.08 187.29 16.8C188.57 15.52 190.383 14.88 192.73 14.88C195.13 14.88 196.943 15.52 198.17 16.8C199.45 18.08 200.09 19.9467 200.09 22.4V37.36H223.37V22.4C223.37 19.9467 223.983 18.08 225.21 16.8C226.49 15.52 228.33 14.88 230.73 14.88C233.077 14.88 234.863 15.52 236.09 16.8C237.37 18.08 238.01 19.9467 238.01 22.4V65.2C238.01 67.6 237.37 69.4667 236.09 70.8C234.863 72.08 233.077 72.72 230.73 72.72C228.33 72.72 226.49 72.08 225.21 70.8C223.983 69.4667 223.37 67.6 223.37 65.2V49.44H200.09V65.2C200.09 67.6 199.477 69.4667 198.25 70.8C197.023 72.08 195.183 72.72 192.73 72.72ZM263.941 72C261.434 72 259.514 71.36 258.181 70.08C256.901 68.7467 256.261 66.8533 256.261 64.4V23.2C256.261 20.7467 256.901 18.88 258.181 17.6C259.514 16.2667 261.434 15.6 263.941 15.6H291.061C292.981 15.6 294.421 16.08 295.381 17.04C296.341 18 296.821 19.3867 296.821 21.2C296.821 23.0667 296.341 24.5067 295.381 25.52C294.421 26.48 292.981 26.96 291.061 26.96H270.341V37.68H289.301C291.167 37.68 292.581 38.16 293.541 39.12C294.554 40.08 295.061 41.4933 295.061 43.36C295.061 45.2267 294.554 46.64 293.541 47.6C292.581 48.56 291.167 49.04 289.301 49.04H270.341V60.64H291.061C292.981 60.64 294.421 61.1467 295.381 62.16C296.341 63.12 296.821 64.5067 296.821 66.32C296.821 68.1867 296.341 69.6 295.381 70.56C294.421 71.52 292.981 72 291.061 72H263.941ZM320.841 72C318.868 72 317.348 71.4933 316.281 70.48C315.268 69.4133 314.761 67.92 314.761 66C314.761 64.08 315.268 62.6133 316.281 61.6C317.348 60.5867 318.868 60.08 320.841 60.08H328.041V27.36H334.761L323.161 34.48C321.775 35.3333 320.468 35.68 319.241 35.52C318.015 35.3067 316.975 34.7733 316.121 33.92C315.268 33.0667 314.708 32.0267 314.441 30.8C314.175 29.5733 314.281 28.3467 314.761 27.12C315.241 25.8933 316.201 24.8533 317.641 24L328.681 17.12C329.855 16.3733 331.055 15.8133 332.281 15.44C333.561 15.0667 334.895 14.88 336.281 14.88C338.308 14.88 339.881 15.4133 341.001 16.48C342.121 17.4933 342.681 18.9867 342.681 20.96V60.08H349.081C351.055 60.08 352.548 60.5867 353.561 61.6C354.628 62.6133 355.161 64.08 355.161 66C355.161 67.92 354.628 69.4133 353.561 70.48C352.548 71.4933 351.055 72 349.081 72H320.841Z" fill="white"/>
</g>
<defs>
<clipPath id="clip0_277_42">
<rect width="366" height="87" fill="white"/>
</clipPath>
</defs>
</svg>
